<?xml version="1.0" encoding="utf-8"?>
<!-- Generator: Adobe Illustrator 27.8.1, SVG Export Plug-In . SVG Version: 6.00 Build 0)  -->
<svg version="1.1" id="Layer_1" xmlns="http://www.w3.org/2000/svg" xmlns:xlink="http://www.w3.org/1999/xlink" x="0px" y="0px"
	 viewBox="0 0 2071.43 578.08" style="enable-background:new 0 0 2071.43 578.08;" xml:space="preserve">
<style type="text/css">
	.st0{fill:#C4F85C;}
	.st1{fill:#FFFFFF;}
	.st2{fill:url(#SVGID_1_);}
	.st3{fill:url(#SVGID_00000147196004722852306490000002117605711138790573_);}
	.st4{fill:url(#SVGID_00000039095423357496067620000003053738762645973135_);}
	.st5{fill:url(#SVGID_00000013172624317272579540000010426334452801226392_);}
	.st6{fill:url(#SVGID_00000112634224169143987880000002813332923157601196_);}
	.st7{fill:url(#SVGID_00000040568381653632358350000004070414188944125856_);}
	.st8{fill:url(#SVGID_00000175323401023901838390000007421192437145172131_);}
	.st9{fill:url(#SVGID_00000036936621229652552500000010919557476774126208_);}
	.st10{fill:url(#SVGID_00000111872961052299822240000010556853862569465255_);}
	.st11{fill:#151515;}
	.st12{fill:url(#SVGID_00000139976397789849126690000009163054559814851245_);}
	.st13{fill:url(#SVGID_00000121969889320380267890000009121045110392253825_);}
	.st14{fill:url(#SVGID_00000118399241252388504790000001738977830889013688_);}
	.st15{fill:url(#SVGID_00000121243419466113667910000016922066851061834889_);}
	.st16{fill:url(#SVGID_00000031907589859306046930000007068559774441781695_);}
	.st17{fill:url(#SVGID_00000096044684140701106140000003709812618235553668_);}
	.st18{fill:url(#SVGID_00000129922725716917019200000018394991152708526506_);}
	.st19{fill:url(#SVGID_00000016785829734830901090000004129748186310585002_);}
	.st20{fill:url(#SVGID_00000143603967192326463980000014365846472637358007_);}
	.st21{fill:url(#SVGID_00000108307808030966201710000004313412265772320134_);}
	.st22{fill:url(#SVGID_00000109741398972918641210000015122600986117548422_);}
	.st23{fill:url(#SVGID_00000070110342667041707410000005183184490829318562_);}
	.st24{fill:url(#SVGID_00000145739342680015357580000003084473115036856975_);}
	.st25{fill:url(#SVGID_00000000935582760558275060000016300012994228615810_);}
	.st26{fill:url(#SVGID_00000042715486904298843690000016680781660990608820_);}
	.st27{fill:url(#SVGID_00000115509982403914395250000001244358368333239716_);}
	.st28{fill:url(#SVGID_00000097472955422386831500000008308175809304036747_);}
	.st29{fill:url(#SVGID_00000111159228376026952040000007892559041974184622_);}
	.st30{fill:url(#SVGID_00000022550112005825658940000017360453892276227252_);}
	.st31{fill:url(#SVGID_00000116193382723463446360000012539815627336573349_);}
	.st32{fill:url(#SVGID_00000003095088811837901610000004399750107719691198_);}
	.st33{fill:url(#SVGID_00000165949903814852141140000018378591150818259599_);}
	.st34{fill:url(#SVGID_00000012431514209391529960000001502896245115749770_);}
	.st35{fill:url(#SVGID_00000049933415261124873000000004228398240560466093_);}
	.st36{fill:url(#SVGID_00000006669352439537110440000006215595957305048492_);}
	.st37{fill:url(#SVGID_00000054233985305804991800000012844166048667664260_);}
	.st38{fill:url(#SVGID_00000079457037995967021760000000113896747315911302_);}
	.st39{fill:url(#SVGID_00000149351236267571639040000010548139039794668939_);}
	.st40{fill:url(#SVGID_00000028301252425008648540000006740731841656726411_);}
	.st41{fill:url(#SVGID_00000034049202462214079750000009830330904498237326_);}
	.st42{fill:url(#SVGID_00000102504692432156192850000008355818385714901662_);}
	.st43{fill:url(#SVGID_00000020398929379160576920000001847192811196851075_);}
	.st44{fill:url(#SVGID_00000050638509167017077410000016318532288899498136_);}
	.st45{fill:url(#SVGID_00000047043002632983570030000012750350060802680229_);}
	.st46{fill:url(#SVGID_00000049219493722960676770000004496266622724932518_);}
	.st47{fill:url(#SVGID_00000053530981114293524950000008550454816028728989_);}
	.st48{fill:url(#SVGID_00000025426443321498912410000016931018418815264919_);}
	.st49{fill:url(#SVGID_00000169558042382891800700000002759608281393833105_);}
	.st50{fill:url(#SVGID_00000083061133178419175040000013482791668738071996_);}
	.st51{fill:url(#SVGID_00000135682684778178523190000005668706767348886430_);}
	.st52{fill:url(#SVGID_00000142859252153037187790000013382279475861627573_);}
	.st53{fill:url(#SVGID_00000080912915633260522590000014804399160486646429_);}
	.st54{fill:url(#SVGID_00000124842995754019213270000007286064738638910611_);}
	.st55{fill:url(#SVGID_00000163789452780180344850000001321536121235046540_);}
	.st56{fill:url(#SVGID_00000008142115332799912480000005331988137044902803_);}
	.st57{fill:url(#SVGID_00000016788448542000722670000018280343689362358174_);}
	.st58{fill:url(#SVGID_00000124853185455247400860000017607351374394106020_);}
	.st59{fill:url(#SVGID_00000104707127433566206950000015890986226108470189_);}
</style>
<g>
	<g>
		<linearGradient id="SVGID_1_" gradientUnits="userSpaceOnUse" x1="270.0844" y1="404.5208" x2="270.0844" y2="178.1741">
			<stop  offset="0" style="stop-color:#C9AB8A"/>
			<stop  offset="1" style="stop-color:#FAD2B1"/>
		</linearGradient>
		<path class="st2" d="M428.3,404.45c-10.84,0.03-19.26-3.17-26.45-9.59c-1.32-1.18-2.56-2.45-3.81-3.71
			c-10.79-10.78-21.57-21.56-32.36-32.33c-19.64-19.6-43.05-32.45-70.34-37.28c-45.07-7.99-84.7,3.83-118.27,34.94
			c-11.83,10.96-22.92,22.72-34.34,34.11c-1.26,1.25-2.48,2.53-3.78,3.75c-14.32,13.39-36.24,13.6-50.81,0.49
			c-1.19-1.07-2.3-2.21-3.43-3.34c-23.83-23.81-47.66-47.63-71.49-71.45c-1.13-1.13-2.27-2.24-3.35-3.42
			c-13.23-14.52-13.14-36.37,0.19-50.78c0.24-0.26,0.49-0.51,0.74-0.76c25.46-25.45,50.91-50.9,76.39-76.33
			c4.35-4.34,9.51-7.48,15.44-9.04c13.93-3.65,26.39-0.84,36.89,9.19c6.92,6.61,13.61,13.47,20.38,20.24
			c5.4,5.39,10.68,10.89,16.17,16.18c20.22,19.54,44.18,31.78,71.95,36.37c32.63,5.4,63.14-0.67,91.55-17.42
			c9.97-5.88,18.92-13.12,27.09-21.34c11.12-11.2,22.33-22.31,33.47-33.48c5-5.02,10.83-8.59,17.77-10.15
			c12.37-2.79,23.56-0.33,33.38,7.84c0.82,0.68,1.57,1.43,2.33,2.18c25.09,25.07,50.16,50.15,75.27,75.2
			c4.62,4.61,8.12,9.91,9.77,16.21c3.65,13.92,0.83,26.37-9.24,36.86c-6.39,6.65-12.96,13.12-19.49,19.63
			c-18.07,18.04-36.16,36.07-54.24,54.1c-1,1-1.99,2.02-3.03,2.99C445.45,401,436.94,404.41,428.3,404.45z"/>
		
			<linearGradient id="SVGID_00000096761061959668285770000005301779690496091319_" gradientUnits="userSpaceOnUse" x1="270.1066" y1="226.3774" x2="270.1066" y2="0">
			<stop  offset="0" style="stop-color:#C9AB8A"/>
			<stop  offset="1" style="stop-color:#FAD2B1"/>
		</linearGradient>
		<path style="fill:url(#SVGID_00000096761061959668285770000005301779690496091319_);" d="M270.66,226.38
			c-10.16,0.02-18.7-3.32-25.97-9.92c-1.18-1.07-2.28-2.23-3.41-3.35c-23.69-23.68-47.39-47.36-71.08-71.03
			c-1.13-1.13-2.28-2.23-3.36-3.4c-13.31-14.46-13.37-36.24-0.13-50.76c1.07-1.18,2.22-2.29,3.35-3.41
			c23.82-23.81,47.63-47.61,71.45-71.41c1.25-1.25,2.5-2.52,3.82-3.69c14.53-12.81,36.22-12.48,50.37,0.76
			c1.16,1.09,2.27,2.24,3.4,3.37c23.69,23.68,47.39,47.36,71.08,71.04c1.13,1.13,2.28,2.24,3.35,3.41
			c12.66,13.83,13.17,34.69,1.18,49.15c-1.35,1.63-2.87,3.14-4.37,4.64c-23.04,23.08-46.09,46.15-69.15,69.21
			c-2.13,2.13-4.26,4.27-6.53,6.24C287.71,223.24,279.58,226.3,270.66,226.38z"/>
		
			<linearGradient id="SVGID_00000023248786415445733430000010980083588746549891_" gradientUnits="userSpaceOnUse" x1="270.1066" y1="351.7042" x2="270.1066" y2="578.0817">
			<stop  offset="0" style="stop-color:#C9AB8A"/>
			<stop  offset="1" style="stop-color:#FAD2B1"/>
		</linearGradient>
		<path style="fill:url(#SVGID_00000023248786415445733430000010980083588746549891_);" d="M270.66,578.08
			c-10.16,0.02-18.7-3.32-25.97-9.92c-1.18-1.07-2.28-2.23-3.41-3.35c-23.69-23.68-47.39-47.36-71.08-71.03
			c-1.13-1.13-2.28-2.23-3.36-3.4c-13.31-14.46-13.37-36.24-0.13-50.76c1.07-1.18,2.22-2.29,3.35-3.41
			c23.82-23.81,47.63-47.61,71.45-71.41c1.25-1.25,2.5-2.52,3.82-3.69c14.53-12.81,36.22-12.48,50.37,0.76
			c1.16,1.09,2.27,2.24,3.4,3.37c23.69,23.68,47.39,47.36,71.08,71.04c1.13,1.13,2.28,2.24,3.35,3.41
			c12.66,13.83,13.17,34.69,1.18,49.15c-1.35,1.63-2.87,3.14-4.37,4.64c-23.04,23.08-46.09,46.15-69.15,69.21
			c-2.13,2.13-4.26,4.27-6.53,6.24C287.71,574.94,279.58,578,270.66,578.08z"/>
	</g>
	<g>
		<g>
			<path class="st1" d="M629.68,434.88L760.94,143.2h53.34l131.67,291.68h-56.67L776.36,171.95h21.67L685.52,434.88H629.68z
				 M690.1,367.38l14.59-42.5H862.2l14.58,42.5H690.1z"/>
			<path class="st1" d="M1073.46,439.05c-22.78,0-44.59-3.27-65.42-9.79c-20.83-6.52-37.37-14.93-49.59-25.21l18.75-42.09
				c11.67,9.17,26.11,16.81,43.34,22.92c17.22,6.11,34.86,9.17,52.92,9.17c15.27,0,27.64-1.67,37.09-5
				c9.44-3.33,16.39-7.85,20.83-13.54c4.44-5.69,6.67-12.15,6.67-19.38c0-8.89-3.2-16.04-9.58-21.46
				c-6.39-5.42-14.66-9.72-24.79-12.92c-10.14-3.19-21.39-6.18-33.75-8.96c-12.36-2.77-24.73-6.04-37.09-9.79
				c-12.36-3.75-23.61-8.61-33.75-14.58c-10.14-5.97-18.41-13.96-24.79-23.96c-6.39-10-9.58-22.78-9.58-38.34
				c0-15.83,4.23-30.35,12.71-43.54c8.47-13.19,21.39-23.75,38.75-31.67c17.36-7.92,39.38-11.88,66.05-11.88
				c17.5,0,34.86,2.23,52.09,6.67c17.22,4.45,32.22,10.83,45,19.17l-17.08,42.09c-13.06-7.77-26.53-13.54-40.42-17.29
				c-13.89-3.75-27.23-5.62-40-5.62c-15,0-27.16,1.81-36.46,5.42c-9.31,3.61-16.11,8.33-20.42,14.17c-4.31,5.83-6.46,12.5-6.46,20
				c0,8.89,3.13,16.04,9.38,21.46c6.25,5.42,14.44,9.66,24.58,12.71c10.14,3.06,21.46,6.04,33.96,8.96
				c12.5,2.92,24.93,6.19,37.29,9.79c12.36,3.61,23.61,8.33,33.75,14.17c10.14,5.83,18.33,13.75,24.58,23.75
				c6.25,10,9.38,22.64,9.38,37.92c0,15.56-4.24,29.94-12.71,43.13c-8.48,13.2-21.46,23.75-38.96,31.67
				C1122.21,435.09,1100.12,439.05,1073.46,439.05z"/>
			<path class="st1" d="M1300.14,434.88V189.03h-96.67V143.2h247.52v45.84h-96.67v245.85H1300.14z"/>
			<path class="st1" d="M1491.81,434.88V143.2h119.59c38.89,0,69.38,9.17,91.46,27.5c22.09,18.33,33.13,43.75,33.13,76.25
				c0,21.39-5,39.79-15,55.21c-10,15.42-24.24,27.23-42.71,35.42c-18.48,8.2-40.63,12.29-66.46,12.29h-90.01l24.17-24.58v109.59
				H1491.81z M1545.98,331.13l-24.17-25.84h87.51c23.89,0,41.88-5.14,53.96-15.42c12.08-10.28,18.13-24.59,18.13-42.92
				c0-18.61-6.04-32.92-18.13-42.92c-12.08-10-30.07-15-53.96-15h-87.51l24.17-26.67V331.13z M1682.66,434.88l-73.75-105.84h57.92
				L1741,434.88H1682.66z"/>
			<path class="st1" d="M1755.16,434.88l131.26-291.68h53.34l131.67,291.68h-56.67l-112.92-262.93h21.67l-112.51,262.93H1755.16z
				 M1815.58,367.38l14.59-42.5h157.51l14.58,42.5H1815.58z"/>
		</g>
	</g>
</g>
</svg>
